HIERARCHY
ROOT Hips
{
	OFFSET 0.000000 0.000000 0.000000
	CHANNELS 6 Xposition Yposition Zposition Xrotation Yrotation Zrotation
	JOINT LeftUpLeg_virtual
	{
		OFFSET 0.000000 0.000000 0.000000
		CHANNELS 3 Xrotation Yrotation Zrotation
		JOINT LeftUpLeg
		{
			OFFSET 10.205400 -3.823500 0.155100
			CHANNELS 3 Xrotation Yrotation Zrotation
			JOINT LeftLeg
			{
				OFFSET 0.708757 -12.982077 0.567790
				CHANNELS 3 Xrotation Yrotation Zrotation
				JOINT LeftFoot
				{
					OFFSET -0.708756 -10.717838 -2.184338
					CHANNELS 3 Xrotation Yrotation Zrotation
					JOINT LeftToeBase
					{
						OFFSET 0.108149 -7.191104 7.560241
						CHANNELS 3 Xrotation Yrotation Zrotation
						JOINT LeftToe_End
						{
							OFFSET 0.070230 0.081724 4.490308
							CHANNELS 3 Xrotation Yrotation Zrotation
							End Site
							{
								OFFSET 0 0 0
							}
						}
					}
				}
			}
		}
	}
	JOINT RightUpLeg_virtual
	{
		OFFSET 0.000000 0.000000 0.000000
		CHANNELS 3 Xrotation Yrotation Zrotation
		JOINT RightUpLeg
		{
			OFFSET -10.205400 -3.823500 0.005500
			CHANNELS 3 Xrotation Yrotation Zrotation
			JOINT RightLeg
			{
				OFFSET -0.708756 -12.982134 0.610632
				CHANNELS 3 Xrotation Yrotation Zrotation
				JOINT RightFoot
				{
					OFFSET 0.708754 -10.717769 -1.945823
					CHANNELS 3 Xrotation Yrotation Zrotation
					JOINT RightToeBase
					{
						OFFSET -0.108140 -7.191069 7.372968
						CHANNELS 3 Xrotation Yrotation Zrotation
						JOINT RightToe_End
						{
							OFFSET -0.070227 0.081735 4.479403
							CHANNELS 3 Xrotation Yrotation Zrotation
							End Site
							{
								OFFSET 0 0 0
							}
						}
					}
				}
			}
		}
	}
	JOINT Spine_virtual
	{
		OFFSET 0.000000 0.000000 0.000000
		CHANNELS 3 Xrotation Yrotation Zrotation
		JOINT Spine
		{
			OFFSET 0.000000 6.876099 0.125700
			CHANNELS 3 Xrotation Yrotation Zrotation
			JOINT Spine1
			{
				OFFSET 0.000000 5.730043 0.104720
				CHANNELS 3 Xrotation Yrotation Zrotation
				JOINT Spine1_split
				{
					OFFSET 0.000000 5.730043 0.104720
					CHANNELS 3 Xrotation Yrotation Zrotation
					JOINT Spine2
					{
						OFFSET 0.000000 5.730043 0.104720
						CHANNELS 3 Xrotation Yrotation Zrotation
						JOINT Neck_virtual
						{
							OFFSET 0.000000 0.000000 0.000000
							CHANNELS 3 Xrotation Yrotation Zrotation
							JOINT Neck
							{
								OFFSET 0.000000 10.314075 0.188496
								CHANNELS 3 Xrotation Yrotation Zrotation
								JOINT Head
								{
									OFFSET 0.000000 7.643700 -2.377400
									CHANNELS 3 Xrotation Yrotation Zrotation
									JOINT HeadTop_End
									{
										OFFSET 0.000000 43.788605 -13.619600
										CHANNELS 3 Xrotation Yrotation Zrotation
										End Site
										{
											OFFSET 0 0 0
										}
									}
								}
							}
						}
						JOINT LeftShoulder_virtual
						{
							OFFSET 0.000000 0.000000 0.000000
							CHANNELS 3 Xrotation Yrotation Zrotation
							JOINT LeftShoulder
							{
								OFFSET 2.196100 4.412489 0.087492
								CHANNELS 3 Xrotation Yrotation Zrotation
								JOINT LeftShoulder_split
								{
									OFFSET 2.196100 4.412489 0.087492
									CHANNELS 3 Xrotation Yrotation Zrotation
									JOINT LeftArm
									{
										OFFSET 8.771219 -2.981674 -0.026999
										CHANNELS 3 Xrotation Yrotation Zrotation
										JOINT LeftForeArm
										{
											OFFSET 8.512804 0.000000 -0.000000
											CHANNELS 3 Xrotation Yrotation Zrotation
											JOINT LeftHand
											{
												OFFSET 18.484802 0.000000 -0.000000
												CHANNELS 3 Xrotation Yrotation Zrotation
												End Site
												{
													OFFSET 0 0 0
												}
											}
										}
									}
								}
							}
						}
						JOINT RightShoulder_virtual
						{
							OFFSET 0.000000 0.000000 0.000000
							CHANNELS 3 Xrotation Yrotation Zrotation
							JOINT RightShoulder
							{
								OFFSET -2.196100 4.412496 0.070690
								CHANNELS 3 Xrotation Yrotation Zrotation
								JOINT RightShoulder_split
								{
									OFFSET -2.196100 4.412496 0.070690
									CHANNELS 3 Xrotation Yrotation Zrotation
									JOINT RightArm
									{
										OFFSET -8.771282 -2.981682 -0.094208
										CHANNELS 3 Xrotation Yrotation Zrotation
										JOINT RightForeArm
										{
											OFFSET -8.494598 0.000000 0.000000
											CHANNELS 3 Xrotation Yrotation Zrotation
											JOINT RightHand
											{
												OFFSET -18.483803 0.000000 0.000001
												CHANNELS 3 Xrotation Yrotation Zrotation
												End Site
												{
													OFFSET 0 0 0
												}
											}
										}
									}
								}
							}
						}
					}
				}
			}
		}
	}
}
MOTION
Frames: 5
Frame Time: 0.03333333
1.210221 27.851664 -1.363762 0.000000 0.000000 0.000000 7.269656 -67.716312 9.098872 -36.887113 9.881045 34.971777 41.763011 -11.820748 0.294425 -13.290182 -0.633982 -21.689303 -0.638326 -0.278398 -0.274777 0.000000 0.000000 0.000000 5.406030 -67.305121 8.126913 -26.586588 -18.379569 -43.629216 42.832823 14.330736 -2.869728 -23.988649 -5.653874 29.212839 4.537699 0.901382 0.656721 0.000000 0.000000 0.000000 7.158382 -65.061841 8.787738 12.084064 -0.645784 -4.993705 7.198105 1.710181 -1.006993 0.526612 3.903603 -0.670206 0.000000 0.000000 0.000000 9.708187 1.791494 -2.155656 7.282187 4.806040 4.592299 -24.477457 52.936527 18.988933 0.000000 0.000000 0.000000 8.996145 1.148879 -1.075898 5.501440 -1.766415 -12.388622 -3.013623 -4.555569 2.512730 -34.288694 14.094998 -27.862271 6.988796 -53.873196 4.314313 0.000000 0.000000 0.000000 7.800187 1.705713 -0.697551 -7.998868 7.741114 15.021078 3.220069 0.706013 -1.662120 17.097837 -6.545702 33.310621 -19.769187 39.565698 20.061375 0.000000 0.000000 0.000000 
1.147601 27.948248 -1.234835 0.000000 0.000000 0.000000 6.864986 -67.536528 8.397863 -36.859843 9.458938 35.290396 42.686510 -11.706820 0.486239 -13.469291 -0.666716 -22.142722 -0.903028 -0.283251 -0.243895 0.000000 0.000000 0.000000 5.174194 -67.520948 7.641935 -25.718415 -18.055926 -43.003441 40.746115 14.455581 -2.644544 -23.337325 -5.225042 29.820452 3.158428 0.943534 0.678587 0.000000 0.000000 0.000000 7.086454 -65.399130 8.385670 12.050367 -0.674868 -4.603152 7.215841 1.715125 -1.451442 0.076088 3.141185 -0.496637 0.000000 0.000000 0.000000 8.778688 1.812237 -2.337096 7.699395 4.835841 4.439068 -24.093656 54.098442 18.156813 0.000000 0.000000 0.000000 8.665467 1.176344 -1.545743 5.414141 -2.332017 -12.708813 -3.214772 -2.860394 2.144513 -33.329151 16.502823 -27.273992 7.664721 -51.600860 4.793973 0.000000 0.000000 0.000000 7.373442 1.874905 -0.885090 -9.222757 6.386124 15.128389 3.943884 -0.180655 -0.386507 14.993203 -5.610976 31.723206 -18.602500 38.868838 19.727340 0.000000 0.000000 0.000000 
1.055825 28.072489 -1.066217 0.000000 0.000000 0.000000 5.644209 -67.889130 6.811976 -36.563031 8.786501 35.865508 43.978949 -11.325162 0.558569 -13.768336 -0.515192 -22.501391 -1.288760 -0.266491 -0.091955 0.000000 0.000000 0.000000 4.358182 -68.240659 6.437418 -24.642078 -17.641166 -42.439124 38.229003 14.886822 -2.150193 -22.316552 -4.544199 30.392443 2.197567 0.970913 0.815749 0.000000 0.000000 0.000000 6.310749 -65.924665 7.200247 11.734657 -0.733957 -4.100988 6.611673 1.409748 -1.551910 0.304855 2.644342 -0.164982 0.000000 0.000000 0.000000 7.453405 1.378277 -2.063769 7.773516 4.820431 3.623218 -21.813748 56.317089 14.767477 0.000000 0.000000 0.000000 7.591211 0.844610 -1.633138 4.943876 -3.641121 -14.329679 -3.961663 -1.824886 2.827183 -28.387395 20.487383 -26.683135 6.830788 -49.032712 4.265843 0.000000 0.000000 0.000000 6.431178 1.621837 -0.775521 -11.321045 3.881994 14.901951 4.565852 -1.027666 0.154151 13.200448 -10.081749 32.902333 -17.476472 40.807662 19.428823 0.000000 0.000000 0.000000 
0.946746 28.148985 -0.921833 0.000000 0.000000 0.000000 3.669825 -68.592332 4.512099 -36.193664 7.956796 36.529914 45.507529 -10.686638 0.551712 -14.266272 -0.228702 -22.580973 -1.546007 -0.230392 0.070345 0.000000 0.000000 0.000000 2.740817 -69.014909 4.433626 -23.561127 -17.303374 -42.121592 36.271692 15.429493 -1.481725 -21.287516 -3.943242 30.918197 1.730054 0.972453 0.953172 0.000000 0.000000 0.000000 5.014842 -66.446382 5.440945 11.173780 -0.839898 -3.571977 5.515373 0.901579 -1.341675 0.431246 1.723550 0.325691 0.000000 0.000000 0.000000 5.962332 0.612019 -1.446754 7.402784 4.833892 2.362322 -17.080459 58.861307 8.805675 0.000000 0.000000 0.000000 6.088713 0.266646 -1.379630 4.170321 -5.221061 -16.854323 -4.469213 -1.500088 4.431055 -20.646111 24.763358 -26.499662 5.387593 -47.911462 3.467650 0.000000 0.000000 0.000000 5.193496 1.052440 -0.414568 -14.057803 0.898466 13.537447 4.236428 -0.916648 -0.234812 12.228398 -19.815596 37.020933 -16.842125 46.667541 19.250890 0.000000 0.000000 0.000000 
0.835867 28.115900 -0.756849 0.000000 0.000000 0.000000 1.347022 -69.081408 1.933408 -35.987153 6.982335 37.113513 47.224095 -9.935072 0.535472 -14.872506 -0.034816 -22.509679 -1.627927 -0.184739 0.207239 0.000000 0.000000 0.000000 0.659100 -69.238557 2.014433 -22.543130 -17.284014 -42.103810 35.557856 15.861262 -0.874940 -20.798737 -3.892763 31.337434 1.092922 0.943525 0.936165 0.000000 0.000000 0.000000 3.522372 -66.783691 3.430691 10.378396 -0.944254 -3.077084 4.222290 0.334448 -0.891549 0.697379 0.762732 0.265913 0.000000 0.000000 0.000000 4.568336 -0.276244 -0.679258 6.461139 4.928804 0.841812 -9.972447 60.745619 0.754381 0.000000 0.000000 0.000000 4.403556 -0.348284 -0.910618 3.184828 -6.617116 -19.434798 -4.084025 -1.783886 6.512587 -11.735794 28.329285 -27.084547 4.266182 -48.555832 2.964379 0.000000 0.000000 0.000000 3.914746 0.360600 0.010234 -17.269375 -2.135837 10.293925 2.778287 0.076822 -0.471892 11.752742 -33.889114 43.308324 -18.557228 58.439413 20.898828 0.000000 0.000000 0.000000 
